<svg width="62" height="62" viewBox="0 0 62 62" fill="none" xmlns="http://www.w3.org/2000/svg">
<g clip-path="url(#clip0_378_16)">
<path d="M52.8503 50.4087V33.3371H33.6503V52.141H51.2255L45.1679 46.2088L46.8647 44.5466L52.8503 50.4087ZM52.8503 50.4087V33.3371H33.6503V52.141H51.2255L45.1679 46.2088L46.8647 44.5466L52.8503 50.4087ZM52.8503 50.4087V33.3371H33.6503V52.141H51.2255L45.1679 46.2088L46.8647 44.5466L52.8503 50.4087ZM52.8503 50.4087V33.3371H33.6503V52.141H51.2255L45.1679 46.2088L46.8647 44.5466L52.8503 50.4087ZM52.8503 50.4087V33.3371H33.6503V52.141H51.2255L45.1679 46.2088L46.8647 44.5466L52.8503 50.4087Z" fill="#FFF3DD"/>
<path d="M0.050293 0.389038V59.151H60.0503V0.389038H0.050293ZM28.8503 7.39911H7.25029V20.33H28.8498L28.8503 37.9624H7.25029V40.3477H26.4503V40.3307L28.8503 40.3303V54.4802H26.4503V42.6981H7.25029V54.4567H4.85029V25.0305H7.25029V35.6119H26.4503V22.6805H4.85029V5.04863H28.8498L28.8503 7.39911ZM55.2503 54.4914H31.2503V30.9866H55.2503V54.4914ZM55.2503 28.6127H52.8503V8.52969L43.2503 18.475L33.6503 8.52969V28.6127H31.2503V5.10786H33.6503V5.10974L33.6513 5.1088L43.2508 15.0532L52.8503 5.10833L55.2503 5.10786V28.6127Z" fill="#FFF3DD"/>
</g>
<defs>
<clipPath id="clip0_378_16">
<rect width="62" height="60.7207" fill="white" transform="translate(0 0.339722)"/>
</clipPath>
</defs>
</svg>
