<svg width="52" height="52" viewBox="0 0 52 52" fill="none" xmlns="http://www.w3.org/2000/svg">
<path d="M3.09821 51.2711H0.6875V21.1448H3.09821V31.978H22.3839V18.7389H0.6875V0.6875H24.7942L24.7946 0.687982V3.09391H3.09821V16.3325H24.7942L24.7946 16.333V31.978H24.7942L24.7946 31.9785V34.3844H3.09821V36.8264H22.3839V36.8091L22.3844 36.8086H24.7946V51.2952H22.3839V39.2328H3.09821V51.2711Z" fill="#1B1A17"/>
<path d="M29.6161 24.818H27.2054V0.753917H29.6161V0.755843L29.617 0.754879L39.2594 10.9359L48.9018 0.754399V0.753917H51.3125V24.818H48.9018V4.25716L39.2589 14.4391L29.6161 4.25716V24.818Z" fill="#1B1A17"/>
<path d="M27.2054 27.2484V51.3125H51.3125V27.2484H27.2054ZM48.9018 47.1326L42.8895 41.131L41.1851 42.8328L47.2697 48.9061H29.6161V29.6548H48.9018V47.1326Z" fill="#1B1A17"/>
</svg>
