<svg width="1920" height="1080" viewBox="0 0 1920 1080" fill="none" xmlns="http://www.w3.org/2000/svg">
<mask id="mask0_394_760" style="mask-type:alpha" maskUnits="userSpaceOnUse" x="0" y="0" width="1920" height="1080">
<rect width="1920" height="1080" fill="#C4C4C4"/>
</mask>
<g mask="url(#mask0_394_760)">
<line y1="-0.5" x2="1761" y2="-0.5" transform="matrix(0.707107 -0.707107 0.706994 0.707219 -1212 1177.25)" stroke="#3D3A34" stroke-dasharray="46 20"/>
<line y1="-0.5" x2="1761" y2="-0.5" transform="matrix(0.707107 -0.707107 0.706994 0.707219 -1133 1176.25)" stroke="#3D3A34" stroke-dasharray="46 20"/>
<line y1="-0.5" x2="1761" y2="-0.5" transform="matrix(0.707107 -0.707107 0.706994 0.707219 -1053 1175.25)" stroke="#3D3A34" stroke-dasharray="46 20"/>
<line y1="-0.5" x2="1761" y2="-0.5" transform="matrix(0.707107 -0.707107 0.706994 0.707219 -973 1174.25)" stroke="#3D3A34" stroke-dasharray="46 20"/>
<line y1="-0.5" x2="1761" y2="-0.5" transform="matrix(0.707107 -0.707107 0.706994 0.707219 -893 1173.24)" stroke="#3D3A34" stroke-dasharray="46 20"/>
<line y1="-0.5" x2="1761" y2="-0.5" transform="matrix(0.707107 -0.707107 0.706994 0.707219 -813 1172.24)" stroke="#3D3A34" stroke-dasharray="46 20"/>
<line y1="-0.5" x2="1761" y2="-0.5" transform="matrix(0.707107 -0.707107 0.706994 0.707219 -733 1171.24)" stroke="#3D3A34" stroke-dasharray="46 20"/>
<line y1="-0.5" x2="1761" y2="-0.5" transform="matrix(0.707107 -0.707107 0.706994 0.707219 -653 1170.24)" stroke="#3D3A34" stroke-dasharray="46 20"/>
<line y1="-0.5" x2="1761" y2="-0.5" transform="matrix(0.707107 -0.707107 0.706994 0.707219 -573 1169.24)" stroke="#3D3A34" stroke-dasharray="46 20"/>
<line y1="-0.5" x2="1761" y2="-0.5" transform="matrix(0.707107 -0.707107 0.706994 0.707219 -494 1168.24)" stroke="#3D3A34" stroke-dasharray="46 20"/>
<line y1="-0.5" x2="1761" y2="-0.5" transform="matrix(0.707107 -0.707107 0.706994 0.707219 -414 1168.24)" stroke="#3D3A34" stroke-dasharray="46 20"/>
<line y1="-0.5" x2="1761" y2="-0.5" transform="matrix(0.707107 -0.707107 0.706994 0.707219 -334 1167.24)" stroke="#3D3A34" stroke-dasharray="46 20"/>
<line y1="-0.5" x2="1761" y2="-0.5" transform="matrix(0.707107 -0.707107 0.706994 0.707219 -259 1166.24)" stroke="#3D3A34" stroke-dasharray="46 20"/>
<line y1="-0.5" x2="1761" y2="-0.5" transform="matrix(0.707107 -0.707107 0.706994 0.707219 -185 1166.24)" stroke="#3D3A34" stroke-dasharray="46 20"/>
<line y1="-0.5" x2="1761" y2="-0.5" transform="matrix(0.707107 -0.707107 0.706994 0.707219 -110 1165.24)" stroke="#3D3A34" stroke-dasharray="46 20"/>
<line y1="-0.5" x2="1761" y2="-0.5" transform="matrix(0.707107 -0.707107 0.706994 0.707219 -36 1165.24)" stroke="#3D3A34" stroke-dasharray="46 20"/>
<line y1="-0.5" x2="1761" y2="-0.5" transform="matrix(0.707107 -0.707107 0.706994 0.707219 39 1164.24)" stroke="#3D3A34" stroke-dasharray="46 20"/>
<line y1="-0.5" x2="1761" y2="-0.5" transform="matrix(0.707107 -0.707107 0.706994 0.707219 114 1163.23)" stroke="#3D3A34" stroke-dasharray="46 20"/>
<line y1="-0.5" x2="1761" y2="-0.5" transform="matrix(0.707107 -0.707107 0.706994 0.707219 188 1163.23)" stroke="#3D3A34" stroke-dasharray="46 20"/>
<line y1="-0.5" x2="1761" y2="-0.5" transform="matrix(0.707107 -0.707107 0.706994 0.707219 263 1162.23)" stroke="#3D3A34" stroke-dasharray="46 20"/>
<line y1="-0.5" x2="1761" y2="-0.5" transform="matrix(0.707107 -0.707107 0.706994 0.707219 337 1162.23)" stroke="#3D3A34" stroke-dasharray="46 20"/>
<line y1="-0.5" x2="1761" y2="-0.5" transform="matrix(0.707107 -0.707107 0.706994 0.707219 412 1161.23)" stroke="#3D3A34" stroke-dasharray="46 20"/>
<line y1="-0.5" x2="1761" y2="-0.5" transform="matrix(0.707107 -0.707107 0.706994 0.707219 486 1161.23)" stroke="#3D3A34" stroke-dasharray="46 20"/>
<line y1="-0.5" x2="1761" y2="-0.5" transform="matrix(0.707107 -0.707107 0.706994 0.707219 561 1160.23)" stroke="#3D3A34" stroke-dasharray="46 20"/>
<line y1="-0.5" x2="1761" y2="-0.5" transform="matrix(0.707107 -0.707107 0.706994 0.707219 635 1160.23)" stroke="#3D3A34" stroke-dasharray="46 20"/>
<line y1="-0.5" x2="1761" y2="-0.5" transform="matrix(0.707107 -0.707107 0.706994 0.707219 710 1159.23)" stroke="#3D3A34" stroke-dasharray="46 20"/>
<line y1="-0.5" x2="1761" y2="-0.5" transform="matrix(0.707107 -0.707107 0.706994 0.707219 784 1159.23)" stroke="#3D3A34" stroke-dasharray="46 20"/>
<line y1="-0.5" x2="1761" y2="-0.5" transform="matrix(0.707107 -0.707107 0.706994 0.707219 854 1159.23)" stroke="#3D3A34" stroke-dasharray="46 20"/>
<line y1="-0.5" x2="1761" y2="-0.5" transform="matrix(0.707107 -0.707107 0.706994 0.707219 923 1159.23)" stroke="#3D3A34" stroke-dasharray="46 20"/>
<line y1="-0.5" x2="1761" y2="-0.5" transform="matrix(0.707107 -0.707107 0.706994 0.707219 992 1159.23)" stroke="#3D3A34" stroke-dasharray="46 20"/>
<line y1="-0.5" x2="1761" y2="-0.5" transform="matrix(0.707107 -0.707107 0.706994 0.707219 1062 1159.23)" stroke="#3D3A34" stroke-dasharray="46 20"/>
<line y1="-0.5" x2="1761" y2="-0.5" transform="matrix(0.707107 -0.707107 0.706994 0.707219 1131 1159.22)" stroke="#3D3A34" stroke-dasharray="46 20"/>
<line y1="-0.5" x2="1761" y2="-0.5" transform="matrix(0.707107 -0.707107 0.706994 0.707219 1200 1159.22)" stroke="#3D3A34" stroke-dasharray="46 20"/>
<line y1="-0.5" x2="1761" y2="-0.5" transform="matrix(0.707107 -0.707107 0.706994 0.707219 1269 1159.22)" stroke="#3D3A34" stroke-dasharray="46 20"/>
<line y1="-0.5" x2="1761" y2="-0.5" transform="matrix(0.707107 -0.707107 0.706994 0.707219 1339 1159.22)" stroke="#3D3A34" stroke-dasharray="46 20"/>
<line y1="-0.5" x2="1761" y2="-0.5" transform="matrix(0.707107 -0.707107 0.706994 0.707219 1408 1159.22)" stroke="#3D3A34" stroke-dasharray="46 20"/>
<line y1="-0.5" x2="1761" y2="-0.5" transform="matrix(0.707107 -0.707107 0.706994 0.707219 1477 1159.22)" stroke="#3D3A34" stroke-dasharray="46 20"/>
<line y1="-0.5" x2="1761" y2="-0.5" transform="matrix(0.707107 -0.707107 0.706994 0.707219 1547 1159.22)" stroke="#3D3A34" stroke-dasharray="46 20"/>
<line y1="-0.5" x2="1761" y2="-0.5" transform="matrix(0.707107 -0.707107 0.706994 0.707219 1616 1159.22)" stroke="#3D3A34" stroke-dasharray="46 20"/>
<line y1="-0.5" x2="1761" y2="-0.5" transform="matrix(0.707107 -0.707107 0.706994 0.707219 1685 1159.22)" stroke="#3D3A34" stroke-dasharray="46 20"/>
<line y1="-0.5" x2="1761" y2="-0.5" transform="matrix(0.707107 -0.707107 0.706994 0.707219 1754 1159.22)" stroke="#3D3A34" stroke-dasharray="46 20"/>
<line y1="-0.5" x2="1761" y2="-0.5" transform="matrix(0.707107 -0.707107 0.706994 0.707219 1824 1159.22)" stroke="#3D3A34" stroke-dasharray="46 20"/>
<line y1="-0.5" x2="1761" y2="-0.5" transform="matrix(0.707107 -0.707107 0.706994 0.707219 1893 1159.22)" stroke="#3D3A34" stroke-dasharray="46 20"/>
</g>
</svg>
